<svg width="14" height="18" viewBox="0 0 11 15" fill="none" xmlns="http://www.w3.org/2000/svg">
<path d="M6.57779 7.43997H4.20218C2.49779 7.43997 1.0577 8.71216 0.842176 10.4155L0.50656 13.1755C0.458748 13.5355 0.698748 13.8711 1.03437 13.9433C2.42656 14.2555 3.88989 14.3998 5.40213 14.3998C6.91437 14.3998 8.37765 14.2555 9.74661 13.9442C10.1066 13.872 10.3222 13.5364 10.2988 13.1764L9.96319 10.4164C9.74662 8.73549 8.30663 7.43994 6.57799 7.43994L6.57779 7.43997Z" fill="black"/>
<path d="M8.59444 3.19224C8.59444 4.95475 7.16476 6.38448 5.4022 6.38448C3.63964 6.38448 2.20996 4.9548 2.20996 3.19224C2.20996 1.42879 3.63964 0 5.4022 0C7.16476 0 8.59444 1.42874 8.59444 3.19224Z" fill="black"/>
</svg>
