<svg width="23" height="15" viewBox="0 0 23 15" fill="none" xmlns="http://www.w3.org/2000/svg">
<path d="M4.94671 7.41553H3.02671C1.61109 7.41553 0.43447 8.47114 0.26671 9.84001L0.00232621 12.0956C-0.0220482 12.3834 0.146701 12.6712 0.434518 12.72C1.5389 12.96 2.7389 13.08 3.98676 13.08C4.44238 13.08 4.89895 13.0556 5.30676 13.0322V13.0078L5.64238 10.2723C5.738 9.40792 6.09799 8.61668 6.60238 7.9923C6.14676 7.6323 5.57018 7.41575 4.94676 7.41575L4.94671 7.41553Z" fill="black"/>
<path d="M22.5146 9.86442C22.3468 8.49661 21.1702 7.43994 19.7546 7.43994H17.8346C17.2346 7.43994 16.6346 7.63213 16.179 8.01556C16.6833 8.66337 17.019 9.43117 17.1146 10.2956L17.4502 13.0556V13.0799C17.8824 13.1043 18.3146 13.1277 18.7702 13.1277C20.018 13.1277 21.1947 13.0077 22.3224 12.7677C22.5868 12.6956 22.8024 12.4321 22.7546 12.1434L22.5146 9.86442Z" fill="black"/>
<path d="M6.57781 3.88765C6.57781 5.3192 5.41813 6.47989 3.98653 6.47989C2.55497 6.47989 1.39429 5.31927 1.39429 3.88765C1.39429 2.4561 2.5549 1.29541 3.98653 1.29541C5.41808 1.29541 6.57781 2.45603 6.57781 3.88765Z" fill="black"/>
<path d="M21.4098 3.88765C21.4098 5.3192 20.2492 6.47989 18.8176 6.47989C17.386 6.47989 16.2263 5.31927 16.2263 3.88765C16.2263 2.4561 17.386 1.29541 18.8176 1.29541C20.2492 1.29541 21.4098 2.45603 21.4098 3.88765Z" fill="black"/>
<path d="M12.5778 7.43997H10.2022C8.49779 7.43997 7.0577 8.71216 6.84218 10.4155L6.50656 13.1755C6.45875 13.5355 6.69875 13.8711 7.03437 13.9433C8.42656 14.2555 9.88989 14.3998 11.4021 14.3998C12.9144 14.3998 14.3777 14.2555 15.7466 13.9442C16.1066 13.872 16.3222 13.5364 16.2988 13.1764L15.9632 10.4164C15.7466 8.73549 14.3066 7.43994 12.578 7.43994L12.5778 7.43997Z" fill="black"/>
<path d="M14.5944 3.19224C14.5944 4.95475 13.1648 6.38448 11.4022 6.38448C9.63964 6.38448 8.20996 4.9548 8.20996 3.19224C8.20996 1.42879 9.63964 0 11.4022 0C13.1648 0 14.5944 1.42874 14.5944 3.19224Z" fill="black"/>
</svg>
