<svg width="20" height="20" viewBox="0 0 20 20" fill="none" xmlns="http://www.w3.org/2000/svg">
<path d="M19.6511 18.0284L13.6232 11.9993C14.5503 10.782 15.072 9.21688 15.072 7.53544C15.072 3.36176 11.7102 0 7.53655 0C3.36287 0 0 3.36287 0 7.53655C0 11.7102 3.36176 15.072 7.53544 15.072C9.21688 15.072 10.7233 14.5503 11.9993 13.6232L18.0284 19.6522C18.2599 19.8837 18.5501 20 18.8403 20C19.1305 20 19.4196 19.8837 19.6522 19.6522C20.1152 19.1881 20.1152 18.4924 19.6511 18.0284ZM7.53655 12.7537C4.63779 12.7537 2.31945 10.4353 2.31945 7.53655C2.31945 4.63779 4.63779 2.31945 7.53655 2.31945C10.4353 2.31945 12.7537 4.63779 12.7537 7.53655C12.7537 10.4342 10.4342 12.7537 7.53655 12.7537Z" fill="black"/>
</svg>
